Coordinates
version=1
nRows=38
nColumns=34
inDegrees=no

Units are S.I. units (second, meters, Newtons, ...)
If the header above contains a line with 'inDegrees', this indicates whether rotational values are in degrees (yes) or radians (no).

endheader
time	pelvis_tilt	pelvis_list	pelvis_rotation	pelvis_tx	pelvis_ty	pelvis_tz	hip_flexion_r	hip_adduction_r	hip_rotation_r	knee_angle_r	ankle_angle_r	subtalar_angle_r	mtp_angle_r	hip_flexion_l	hip_adduction_l	hip_rotation_l	knee_angle_l	ankle_angle_l	subtalar_angle_l	mtp_angle_l	lumbar_extension	lumbar_bending	lumbar_rotation	arm_flex_r	arm_add_r	arm_rot_r	elbow_flex_r	pro_sup_r	arm_flex_l	arm_add_l	arm_rot_l	elbow_flex_l	pro_sup_l
1.12	-0.158521	-0.0543319	0.0925239	-0.442613	0.85906	-0.601763	0.706332	-0.135881	-0.229077	0.530955	0.14902	-0.0255985	-0.144646	0.730755	-0.181264	-0.164762	0.527263	0.0614368	0.0986316	-0.144854	-0.443884	0.0854379	-0.00414108	-1.06152	-0.325725	-0.73559	2.10145	1.47793	-1.18566	-0.633185	-0.823294	2.08561	1.74599
1.13	-0.160787	-0.0574549	0.082832	-0.435586	0.83304	-0.601441	0.800517	-0.133185	-0.19647	0.679279	0.145505	-0.0869818	-0.144646	0.832171	-0.18878	-0.132447	0.698405	0.109318	0.0430818	-0.144854	-0.458813	0.0863272	0.016392	-1.00724	-0.323234	-0.737333	2.09687	1.48768	-1.10458	-0.615586	-0.783053	2.06758	1.74515
1.14	-0.161159	-0.0584768	0.073086	-0.428517	0.808973	-0.600987	0.887418	-0.130656	-0.165752	0.81849	0.149633	-0.138783	-0.144646	0.923001	-0.197017	-0.105023	0.855167	0.154924	-0.000666414	-0.144855	-0.47807	0.0840577	0.0345682	-0.938556	-0.325903	-0.725391	2.07669	1.4927	-1.01499	-0.600418	-0.738146	2.04241	1.74016
1.15	-0.159726	-0.0574339	0.0633145	-0.421394	0.787568	-0.600581	0.966856	-0.128287	-0.137066	0.948127	0.161119	-0.181086	-0.144646	1.00318	-0.20596	-0.0825572	0.997291	0.198345	-0.0327997	-0.144855	-0.501537	0.0786916	0.0503626	-0.8555	-0.333631	-0.699742	2.04085	1.49282	-0.916959	-0.587577	-0.688654	2.01017	1.73112
1.16	-0.156786	-0.0544875	0.0535883	-0.414448	0.76769	-0.600039	1.03855	-0.126071	-0.110738	1.06722	0.179269	-0.214119	-0.144646	1.07275	-0.215572	-0.065129	1.12433	0.239901	-0.0539164	-0.144856	-0.528811	0.0704357	0.0637407	-0.758252	-0.346087	-0.660421	1.98929	1.48778	-0.810814	-0.57675	-0.634836	1.97111	1.7183
1.17	-0.152997	-0.0499144	0.0440554	-0.407975	0.74863	-0.599366	1.1024	-0.124007	-0.0871443	1.17476	0.203043	-0.238248	-0.144645	1.1321	-0.225765	-0.0526292	1.23601	0.280122	-0.0651568	-0.144856	-0.559137	0.0597327	0.0747168	-0.647356	-0.362629	-0.607721	1.92224	1.47732	-0.697224	-0.567338	-0.577227	1.92591	1.70222
1.18	-0.149202	-0.0441616	0.0348974	-0.402188	0.730311	-0.598626	1.15885	-0.122142	-0.0665313	1.27017	0.231098	-0.253989	-0.144645	1.18226	-0.2363	-0.0445618	1.33258	0.319465	-0.0681802	-0.144856	-0.591377	0.0472541	0.0833823	-0.523945	-0.382274	-0.542436	1.84063	1.46154	-0.577319	-0.558465	-0.51668	1.87589	1.68373
1.19	-0.146347	-0.0377809	0.026356	-0.397249	0.712891	-0.597849	1.20893	-0.120563	-0.0489274	1.35367	0.261751	-0.262112	-0.144645	1.22491	-0.246755	-0.0399608	1.415	0.357939	-0.0650175	-0.144857	-0.624193	0.0338488	0.0899655	-0.389899	-0.403761	-0.466077	1.74655	1.44117	-0.452687	-0.549063	-0.454334	1.82318	1.66403
1.2	-0.145295	-0.0313768	0.0186907	-0.393134	0.696548	-0.597053	1.25402	-0.119389	-0.0341935	1.42611	0.293048	-0.263746	-0.144645	1.2621	-0.256559	-0.037485	1.48485	0.394926	-0.0578662	-0.144857	-0.656304	0.0204575	0.0948661	-0.24788	-0.425658	-0.380993	1.64354	1.41769	-0.325243	-0.538054	-0.391509	1.77067	1.64469
1.21	-0.146542	-0.0255401	0.0121311	-0.38965	0.681443	-0.596296	1.29552	-0.118734	-0.0221378	1.48879	0.323048	-0.260341	-0.144645	1.29594	-0.265084	-0.0356391	1.5441	0.429319	-0.0488791	-0.144858	-0.686715	0.00800809	0.0986475	-0.101215	-0.446516	-0.290346	1.53673	1.3933	-0.197021	-0.524579	-0.329531	1.72181	1.62761
1.22	-0.150207	-0.020755	0.00684488	-0.3866	0.667676	-0.595674	1.33441	-0.118668	-0.0125922	1.54312	0.350201	-0.253488	-0.144645	1.32807	-0.271778	-0.0330327	1.59483	0.459896	-0.0399633	-0.144858	-0.714928	-0.00268508	0.101931	0.0464109	-0.465007	-0.197836	1.43243	1.37064	-0.069965	-0.508231	-0.269575	1.68019	1.61487
1.23	-0.155987	-0.0173776	0.00288383	-0.383847	0.655223	-0.595223	1.3711	-0.119187	-0.00539225	1.59044	0.373628	-0.244701	-0.144644	1.35946	-0.276263	-0.0286308	1.63889	0.485741	-0.0325895	-0.144859	-0.740854	-0.0110733	0.105136	0.191469	-0.479999	-0.107164	1.33727	1.35226	0.0541356	-0.489202	-0.212609	1.649	1.60855
1.24	-0.163308	-0.0155715	0.00015849	-0.3813	0.643951	-0.594902	1.40554	-0.120172	-0.000328149	1.63185	0.393183	-0.23524	-0.144644	1.39039	-0.278431	-0.0219008	1.67776	0.506523	-0.027654	-0.144859	-0.764632	-0.0169544	0.108405	0.330931	-0.490541	-0.0216674	1.25729	1.34002	0.173833	-0.468369	-0.159194	1.6306	1.61026
1.25	-0.171567	-0.0152923	-0.00156132	-0.37892	0.633674	-0.594641	1.43746	-0.121398	0.00288588	1.66818	0.409319	-0.226021	-0.144644	1.42065	-0.278482	-0.0128446	1.71249	0.522542	-0.0254441	-0.144859	-0.786403	-0.0204904	0.111602	0.462501	-0.495821	0.0559618	1.19697	1.33459	0.288131	-0.44722	-0.109353	1.62615	1.6206
1.26	-0.180361	-0.0163004	-0.00261353	-0.376687	0.624247	-0.594379	1.4666	-0.122582	0.00459096	1.70003	0.422822	-0.217593	-0.144644	1.44979	-0.276901	-0.0019159	1.74368	0.534577	-0.0257219	-0.14486	-0.806178	-0.0221194	0.114349	0.584758	-0.495137	0.123894	1.15861	1.33518	0.3965	-0.427655	-0.0626024	1.63559	1.63863
1.27	-0.189444	-0.0182317	-0.00338614	-0.374554	0.615624	-0.594065	1.49284	-0.12346	0.00512843	1.7278	0.434552	-0.21017	-0.144644	1.47732	-0.274367	0.0101317	1.77162	0.543629	-0.0278876	-0.14486	-0.823749	-0.0224232	0.116127	0.697142	-0.487937	0.181236	1.14215	1.33976	0.498845	-0.411682	-0.0181014	1.65773	1.66194
1.28	-0.19874	-0.0207008	-0.00425098	-0.372447	0.607844	-0.59366	1.51622	-0.123846	0.004786	1.75176	0.445239	-0.203682	-0.144644	1.50285	-0.271657	0.0224307	1.79639	0.550685	-0.031159	-0.144861	-0.838782	-0.0219995	0.116432	0.799811	-0.473928	0.227936	1.14548	1.34573	0.595503	-0.401077	0.0251695	1.6904	1.68728
1.29	-0.208247	-0.0233681	-0.0055131	-0.3703	0.60096	-0.593143	1.53683	-0.123655	0.00376636	1.77208	0.455407	-0.197856	-0.144644	1.52604	-0.269523	0.034166	1.81797	0.556582	-0.0347286	-0.144861	-0.850925	-0.0213562	0.114918	0.89342	-0.453211	0.26461	1.16511	1.3509	0.687216	-0.397077	0.0681992	1.73068	1.71159
1.3	-0.217942	-0.0259768	-0.00736633	-0.36806	0.595024	-0.592514	1.55471	-0.122909	0.0021911	1.7889	0.465391	-0.192312	-0.144643	1.54661	-0.268573	0.0446865	1.8363	0.561952	-0.0378953	-0.144861	-0.859923	-0.0208572	0.111487	0.978894	-0.426409	0.292337	1.19694	1.35398	0.775068	-0.400172	0.111792	1.77524	1.73266
1.31	-0.227733	-0.0283587	-0.00986106	-0.365691	0.590099	-0.591797	1.56981	-0.121727	0.000132573	1.80231	0.47539	-0.186663	-0.144643	1.56427	-0.269157	0.0535503	1.85134	0.567243	-0.04017	-0.144862	-0.865668	-0.0207129	0.106298	1.05725	-0.39474	0.312507	1.23712	1.35478	0.860361	-0.410039	0.156485	1.82074	1.74937
1.32	-0.237472	-0.030429	-0.0128967	-0.363177	0.586227	-0.591022	1.58198	-0.120302	-0.00235026	1.8124	0.485513	-0.180614	-0.144643	1.57874	-0.271298	0.0605278	1.86303	0.572745	-0.0413419	-0.144862	-0.868191	-0.0209941	0.0997146	1.12947	-0.359973	0.326698	1.28247	1.35391	0.944421	-0.425622	0.202509	1.86422	1.76152
1.33	-0.247016	-0.0321785	-0.0162433	-0.360518	0.583394	-0.590217	1.59107	-0.118863	-0.00519838	1.81924	0.495792	-0.174037	-0.144643	1.5898	-0.274688	0.0655913	1.87137	0.578601	-0.0414857	-0.144863	-0.867599	-0.0216494	0.0922144	1.19649	-0.324245	0.336581	1.33073	1.35241	1.02838	-0.445325	0.249763	1.90337	1.76948
1.34	-0.256261	-0.0336657	-0.0195905	-0.357724	0.581566	-0.589421	1.59695	-0.117624	-0.00836415	1.82293	0.506164	-0.167027	-0.144643	1.59735	-0.27877	0.0688945	1.87636	0.5848	-0.0409131	-0.144863	-0.863998	-0.0225205	0.0842878	1.25921	-0.289763	0.343777	1.38042	1.35134	1.113	-0.46727	0.297789	1.93671	1.77382
1.35	-0.265161	-0.0349979	-0.0226077	-0.354792	0.580704	-0.588675	1.59965	-0.116742	-0.0118273	1.82356	0.51644	-0.159899	-0.144643	1.60147	-0.282863	0.0707316	1.87809	0.591152	-0.0400886	-0.144864	-0.857449	-0.0233701	0.0763488	1.31847	-0.258462	0.349695	1.43057	1.35156	1.19854	-0.489557	0.345765	1.96362	1.77487
1.36	-0.273722	-0.0363037	-0.0250028	-0.3517	0.580788	-0.588029	1.59927	-0.116289	-0.0155953	1.82128	0.526289	-0.153152	-0.144642	1.60239	-0.286302	0.0714663	1.87668	0.597278	-0.0395317	-0.144864	-0.847976	-0.023933	0.0686602	1.37509	-0.231732	0.355364	1.48043	1.35362	1.28472	-0.510499	0.392551	1.98426	1.77264
1.37	-0.281968	-0.037697	-0.0265691	-0.348414	0.581806	-0.587512	1.59601	-0.116252	-0.019688	1.81621	0.535263	-0.147392	-0.144642	1.60042	-0.288559	0.0714495	1.87231	0.60263	-0.0397187	-0.144864	-0.835611	-0.0239811	0.0612996	1.4298	-0.210284	0.361342	1.52931	1.35774	1.37087	-0.528802	0.436826	1.99939	1.76691
1.38	-0.289894	-0.0392431	-0.0272152	-0.344905	0.583756	-0.587131	1.59005	-0.116532	-0.0241171	1.80848	0.542846	-0.143235	-0.144642	1.59586	-0.289325	0.0709503	1.86516	0.606552	-0.0409937	-0.144865	-0.820477	-0.0233854	0.0541874	1.48315	-0.194207	0.367715	1.57655	1.36377	1.45603	-0.543648	0.477283	2.01011	1.75746
1.39	-0.297418	-0.040937	-0.02697	-0.341147	0.586636	-0.586885	1.58149	-0.116971	-0.0288746	1.79817	0.54853	-0.141206	-0.144642	1.58887	-0.288555	0.0701182	1.85538	0.608362	-0.0435088	-0.144865	-0.802848	-0.0221496	0.0471706	1.53554	-0.183172	0.374206	1.62163	1.37105	1.53915	-0.55466	0.512829	2.01762	1.74429
1.4	-0.304361	-0.0427106	-0.0259683	-0.337114	0.590456	-0.586765	1.5703	-0.11737	-0.0339294	1.78534	0.551881	-0.14167	-0.144642	1.5795	-0.286457	0.0689766	1.84314	0.607437	-0.047204	-0.144866	-0.783163	-0.020408	0.040124	1.58711	-0.176699	0.380344	1.66421	1.37815	1.61932	-0.561778	0.542722	2.02301	1.72785
1.41	-0.310469	-0.0444599	-0.0244175	-0.332788	0.595251	-0.586753	1.55636	-0.11752	-0.0392286	1.77002	0.552576	-0.14481	-0.144642	1.56762	-0.283447	0.0674382	1.82856	0.60329	-0.0518243	-0.144866	-0.761988	-0.0183856	0.0330221	1.6378	-0.174383	0.385649	1.70435	1.38256	1.6958	-0.565122	0.566643	2.02702	1.70913
1.42	-0.315459	-0.0460784	-0.0225514	-0.328162	0.60106	-0.586825	1.53946	-0.117234	-0.0447019	1.75221	0.550408	-0.15062	-0.144642	1.55307	-0.280069	0.0653361	1.81177	0.595637	-0.0569648	-0.144866	-0.739929	-0.0163322	0.0259479	1.6873	-0.176013	0.389766	1.74244	1.38048	1.76811	-0.564922	0.584703	2.03006	1.6897
1.43	-0.319071	-0.0474886	-0.0205794	-0.32323	0.607908	-0.586957	1.5194	-0.116369	-0.0502678	1.73195	0.545272	-0.158935	-0.144641	1.53563	-0.276908	0.062463	1.79288	0.58444	-0.0621316	-0.144867	-0.717521	-0.0144493	0.0190255	1.73511	-0.181521	0.392515	1.77913	1.36675	1.83599	-0.561531	0.597412	2.0322	1.6715
1.44	-0.321111	-0.0486685	-0.018646	-0.317979	0.615797	-0.587134	1.49606	-0.114855	-0.0558456	1.7093	0.537128	-0.169461	-0.144641	1.51516	-0.274502	0.0586093	1.77199	0.569923	-0.0668107	-0.144867	-0.695136	-0.0128326	0.0122986	1.78055	-0.1908	0.393838	1.81516	1.33508	1.89934	-0.55551	0.605621	2.03332	1.65655
1.45	-0.321469	-0.049666	-0.0168065	-0.312383	0.624706	-0.58734	1.46944	-0.112698	-0.0613752	1.68438	0.52598	-0.181832	-0.144641	1.49156	-0.27328	0.0535952	1.74922	0.552549	-0.0705397	-0.144868	-0.672927	-0.0114435	0.00562244	1.82283	-0.203533	0.393749	1.85119	1.27878	1.95814	-0.54768	0.610454	2.03324	1.64648
1.46	-0.320126	-0.0505963	-0.0150191	-0.306411	0.634611	-0.587561	1.4396	-0.109986	-0.0668442	1.65734	0.511865	-0.195696	-0.144641	1.46482	-0.273513	0.047294	1.72466	0.53296	-0.0729772	-0.144868	-0.650828	-0.0101149	-0.00136681	1.86109	-0.219147	0.392351	1.88769	1.19181	2.0124	-0.539113	0.613243	2.03189	1.64207
1.47	-0.317145	-0.0516147	-0.0131496	-0.300031	0.645493	-0.587785	1.40669	-0.106878	-0.0723105	1.62833	0.494867	-0.21077	-0.144641	1.43499	-0.275281	0.0396412	1.69836	0.511884	-0.0739534	-0.144869	-0.628599	-0.00859418	-0.00918044	1.89452	-0.236964	0.389959	1.92496	1.07076	2.06203	-0.531012	0.615431	2.02926	1.64329
1.48	-0.312658	-0.0528733	-0.0109921	-0.293214	0.65734	-0.588009	1.37086	-0.103595	-0.0779062	1.5974	0.475126	-0.226856	-0.144641	1.4021	-0.278463	0.0306324	1.67024	0.490012	-0.0734825	-0.144869	-0.605895	-0.00661797	-0.0183325	1.92237	-0.256463	0.387292	1.96314	0.917117	2.1068	-0.524548	0.618463	2.02542	1.64964
1.49	-0.306842	-0.0544661	-0.00830775	-0.285942	0.670154	-0.588241	1.33218	-0.100404	-0.0838187	1.56447	0.452832	-0.243771	-0.14464	1.36614	-0.282742	0.020309	1.64006	0.467856	-0.0717341	-0.144869	-0.582345	-0.00399623	-0.029185	1.94403	-0.27753	0.385617	2.00212	0.739842	2.14626	-0.520716	0.62367	2.02044	1.66036
